<svg width="56" height="54" viewBox="0 0 56 54" fill="none" xmlns="http://www.w3.org/2000/svg">
<path d="M27.983 11.3302C33.3092 11.3302 37.627 8.79383 37.627 5.66509C37.627 2.53635 33.3092 0 27.983 0C22.6568 0 18.339 2.53635 18.339 5.66509C18.339 8.79383 22.6568 11.3302 27.983 11.3302Z" fill="black"/>
<path d="M27.983 54C33.3092 54 37.627 51.4636 37.627 48.3349C37.627 45.2061 33.3092 42.6698 27.983 42.6698C22.6568 42.6698 18.339 45.2061 18.339 48.3349C18.339 51.4636 22.6568 54 27.983 54Z" fill="black"/>
<path d="M14.5414 19.1653C17.2045 14.5086 17.1876 9.46538 14.5037 7.90101C11.8198 6.33664 7.48513 8.84348 4.82201 13.5002C2.15889 18.1569 2.17576 23.2001 4.85969 24.7645C7.54362 26.3289 11.8783 23.822 14.5414 19.1653Z" fill="black"/>
<path d="M51.1446 40.5002C53.8077 35.8435 53.7908 30.8003 51.1069 29.2359C48.4229 27.6715 44.0883 30.1784 41.4252 34.8351C38.7621 39.4918 38.7789 44.535 41.4629 46.0994C44.1468 47.6638 48.4814 45.1569 51.1446 40.5002Z" fill="black"/>
<path d="M14.5037 46.0991C17.1876 44.5347 17.2045 39.4916 14.5414 34.8348C11.8783 30.1781 7.54362 27.6713 4.85969 29.2356C2.17576 30.8 2.15889 35.8432 4.82201 40.4999C7.48513 45.1566 11.8198 47.6635 14.5037 46.0991Z" fill="black"/>
<path d="M51.1065 24.7646C53.7904 23.2002 53.8073 18.1571 51.1442 13.5003C48.481 8.84361 44.1464 6.33676 41.4625 7.90113C38.7785 9.4655 38.7617 14.5087 41.4248 19.1654C44.0879 23.8221 48.4226 26.329 51.1065 24.7646Z" fill="black"/>
</svg>
